<mxfile host="app.diagrams.net" modified="2024-02-24T07:22:35.229Z" agent="Mozilla/5.0 (Windows NT 10.0; Win64; x64) AppleWebKit/537.36 (KHTML, like Gecko) Chrome/121.0.0.0 Safari/537.36" etag="IvxB3FjfARuL43zAlmaE" version="23.1.6" type="device">
  <diagram name="Page-1" id="tahh5PZxdYUkdRJHaRyx">
    <mxGraphModel dx="989" dy="532" grid="1" gridSize="10" guides="1" tooltips="1" connect="1" arrows="1" fold="1" page="1" pageScale="1" pageWidth="850" pageHeight="1100" math="0" shadow="0">
      <root>
        <mxCell id="0" />
        <mxCell id="1" parent="0" />
        <mxCell id="Ht73Fuv-k9RWccaourVW-1" value="&lt;b&gt;Задача 3&lt;/b&gt;&lt;span style=&quot;color: rgb(44, 45, 48); font-family: Onest, Roboto, &amp;quot;San Francisco&amp;quot;, &amp;quot;Helvetica Neue&amp;quot;, Helvetica, Arial; font-size: 12px; background-color: rgb(255, 255, 255);&quot;&gt;&lt;b&gt;:&lt;/b&gt; Напишите программу, которая принимает на вход целое число из отрезка [10, 99] и показывает наибольшую цифру числа.&lt;/span&gt;" style="text;html=1;align=left;verticalAlign=middle;whiteSpace=wrap;rounded=0;fontSize=12;" vertex="1" parent="1">
          <mxGeometry x="20" y="30" width="710" as="geometry" />
        </mxCell>
        <mxCell id="Ht73Fuv-k9RWccaourVW-4" value="" style="edgeStyle=orthogonalEdgeStyle;rounded=0;orthogonalLoop=1;jettySize=auto;html=1;" edge="1" parent="1" source="Ht73Fuv-k9RWccaourVW-2">
          <mxGeometry relative="1" as="geometry">
            <mxPoint x="375" y="199.9999999999999" as="targetPoint" />
          </mxGeometry>
        </mxCell>
        <mxCell id="Ht73Fuv-k9RWccaourVW-2" value="Start" style="ellipse;whiteSpace=wrap;html=1;" vertex="1" parent="1">
          <mxGeometry x="315" y="70" width="120" height="80" as="geometry" />
        </mxCell>
        <mxCell id="Ht73Fuv-k9RWccaourVW-7" style="edgeStyle=orthogonalEdgeStyle;rounded=0;orthogonalLoop=1;jettySize=auto;html=1;exitX=0.5;exitY=1;exitDx=0;exitDy=0;entryX=0.5;entryY=0;entryDx=0;entryDy=0;" edge="1" parent="1" source="Ht73Fuv-k9RWccaourVW-5" target="Ht73Fuv-k9RWccaourVW-6">
          <mxGeometry relative="1" as="geometry" />
        </mxCell>
        <mxCell id="Ht73Fuv-k9RWccaourVW-5" value="int input&lt;br&gt;int num1&lt;br&gt;int num2" style="rounded=0;whiteSpace=wrap;html=1;" vertex="1" parent="1">
          <mxGeometry x="300" y="200" width="150" height="90" as="geometry" />
        </mxCell>
        <mxCell id="Ht73Fuv-k9RWccaourVW-9" style="edgeStyle=orthogonalEdgeStyle;rounded=0;orthogonalLoop=1;jettySize=auto;html=1;exitX=0.5;exitY=1;exitDx=0;exitDy=0;entryX=0.5;entryY=0;entryDx=0;entryDy=0;" edge="1" parent="1" source="Ht73Fuv-k9RWccaourVW-6" target="Ht73Fuv-k9RWccaourVW-8">
          <mxGeometry relative="1" as="geometry" />
        </mxCell>
        <mxCell id="Ht73Fuv-k9RWccaourVW-6" value="num1 = input / 10" style="rounded=0;whiteSpace=wrap;html=1;" vertex="1" parent="1">
          <mxGeometry x="300" y="340" width="150" height="90" as="geometry" />
        </mxCell>
        <mxCell id="Ht73Fuv-k9RWccaourVW-11" style="edgeStyle=orthogonalEdgeStyle;rounded=0;orthogonalLoop=1;jettySize=auto;html=1;exitX=0.5;exitY=1;exitDx=0;exitDy=0;entryX=0.5;entryY=0;entryDx=0;entryDy=0;" edge="1" parent="1" source="Ht73Fuv-k9RWccaourVW-8" target="Ht73Fuv-k9RWccaourVW-10">
          <mxGeometry relative="1" as="geometry" />
        </mxCell>
        <mxCell id="Ht73Fuv-k9RWccaourVW-8" value="num2 = input % 10" style="rounded=0;whiteSpace=wrap;html=1;" vertex="1" parent="1">
          <mxGeometry x="300" y="480" width="150" height="90" as="geometry" />
        </mxCell>
        <mxCell id="Ht73Fuv-k9RWccaourVW-14" style="edgeStyle=orthogonalEdgeStyle;rounded=0;orthogonalLoop=1;jettySize=auto;html=1;exitX=0;exitY=0.5;exitDx=0;exitDy=0;" edge="1" parent="1" source="Ht73Fuv-k9RWccaourVW-10" target="Ht73Fuv-k9RWccaourVW-12">
          <mxGeometry relative="1" as="geometry" />
        </mxCell>
        <mxCell id="Ht73Fuv-k9RWccaourVW-15" value="YES" style="edgeLabel;html=1;align=center;verticalAlign=middle;resizable=0;points=[];" vertex="1" connectable="0" parent="Ht73Fuv-k9RWccaourVW-14">
          <mxGeometry x="-0.5834" y="-1" relative="1" as="geometry">
            <mxPoint as="offset" />
          </mxGeometry>
        </mxCell>
        <mxCell id="Ht73Fuv-k9RWccaourVW-10" value="num1 &amp;gt; num 2 ?" style="rhombus;whiteSpace=wrap;html=1;" vertex="1" parent="1">
          <mxGeometry x="300" y="620" width="150" height="110" as="geometry" />
        </mxCell>
        <mxCell id="Ht73Fuv-k9RWccaourVW-20" style="edgeStyle=orthogonalEdgeStyle;rounded=0;orthogonalLoop=1;jettySize=auto;html=1;entryX=0.5;entryY=0;entryDx=0;entryDy=0;" edge="1" parent="1" source="Ht73Fuv-k9RWccaourVW-12" target="Ht73Fuv-k9RWccaourVW-19">
          <mxGeometry relative="1" as="geometry" />
        </mxCell>
        <mxCell id="Ht73Fuv-k9RWccaourVW-12" value="num1" style="shape=document;whiteSpace=wrap;html=1;boundedLbl=1;" vertex="1" parent="1">
          <mxGeometry x="170" y="760" width="125" height="90" as="geometry" />
        </mxCell>
        <mxCell id="Ht73Fuv-k9RWccaourVW-21" style="edgeStyle=orthogonalEdgeStyle;rounded=0;orthogonalLoop=1;jettySize=auto;html=1;exitX=0;exitY=0.5;exitDx=0;exitDy=0;" edge="1" parent="1" source="Ht73Fuv-k9RWccaourVW-16" target="Ht73Fuv-k9RWccaourVW-19">
          <mxGeometry relative="1" as="geometry" />
        </mxCell>
        <mxCell id="Ht73Fuv-k9RWccaourVW-16" value="num2" style="shape=document;whiteSpace=wrap;html=1;boundedLbl=1;" vertex="1" parent="1">
          <mxGeometry x="460" y="760" width="125" height="90" as="geometry" />
        </mxCell>
        <mxCell id="Ht73Fuv-k9RWccaourVW-17" style="edgeStyle=orthogonalEdgeStyle;rounded=0;orthogonalLoop=1;jettySize=auto;html=1;exitX=1;exitY=0.5;exitDx=0;exitDy=0;entryX=0.565;entryY=0.012;entryDx=0;entryDy=0;entryPerimeter=0;" edge="1" parent="1" source="Ht73Fuv-k9RWccaourVW-10" target="Ht73Fuv-k9RWccaourVW-16">
          <mxGeometry relative="1" as="geometry" />
        </mxCell>
        <mxCell id="Ht73Fuv-k9RWccaourVW-18" value="NO" style="edgeLabel;html=1;align=center;verticalAlign=middle;resizable=0;points=[];" vertex="1" connectable="0" parent="Ht73Fuv-k9RWccaourVW-17">
          <mxGeometry x="-0.6155" y="1" relative="1" as="geometry">
            <mxPoint as="offset" />
          </mxGeometry>
        </mxCell>
        <mxCell id="Ht73Fuv-k9RWccaourVW-19" value="End" style="ellipse;whiteSpace=wrap;html=1;" vertex="1" parent="1">
          <mxGeometry x="325" y="890" width="120" height="80" as="geometry" />
        </mxCell>
      </root>
    </mxGraphModel>
  </diagram>
</mxfile>
